<svg width="16" height="16" viewBox="0 0 16 16" fill="none" xmlns="http://www.w3.org/2000/svg">
<path d="M11.25 3H11.25C11.7141 3 12.1593 3.18437 12.4874 3.51256C12.8156 3.84075 13 4.28587 13 4.75V4.75C13 5.21413 12.8156 5.65925 12.4874 5.98744C12.1592 6.31563 11.7141 6.5 11.25 6.5H9.5V4.75C9.5 4.28587 9.68437 3.84075 10.0126 3.51256C10.3408 3.18437 10.7859 3 11.25 3V3Z" stroke="#727272" strokeWidth="1.5" strokeLinecap="round" strokeLinejoin="round"/>
<path d="M6.5 6.5H4.75C4.28587 6.5 3.84075 6.31563 3.51256 5.98744C3.18437 5.65925 3 5.21413 3 4.75V4.75C3 4.28587 3.18437 3.84075 3.51256 3.51256C3.84075 3.18437 4.28587 3 4.75 3H4.75C5.21413 3 5.65925 3.18437 5.98744 3.51256C6.31563 3.84075 6.5 4.28587 6.5 4.75V6.5Z" stroke="#727272" strokeWidth="1.5" strokeLinecap="round" strokeLinejoin="round"/>
<path d="M9.5 9.5H11.25C11.7141 9.5 12.1592 9.68437 12.4874 10.0126C12.8156 10.3408 13 10.7859 13 11.25V11.25C13 11.7141 12.8156 12.1593 12.4874 12.4874C12.1593 12.8156 11.7141 13 11.25 13H11.25C10.7859 13 10.3408 12.8156 10.0126 12.4874C9.68437 12.1592 9.5 11.7141 9.5 11.25V9.5Z" stroke="#727272" strokeWidth="1.5" strokeLinecap="round" strokeLinejoin="round"/>
<path d="M4.75 13H4.75C4.28587 13 3.84075 12.8156 3.51256 12.4874C3.18437 12.1593 3 11.7141 3 11.25V11.25C3 10.7859 3.18437 10.3408 3.51256 10.0126C3.84075 9.68437 4.28587 9.5 4.75 9.5H6.5V11.25C6.5 11.7141 6.31563 12.1592 5.98744 12.4874C5.65925 12.8156 5.21413 13 4.75 13V13Z" stroke="#727272" strokeWidth="1.5" strokeLinecap="round" strokeLinejoin="round"/>
<path d="M9.5 6.5H6.5V9.5H9.5V6.5Z" stroke="#727272" strokeWidth="1.5" strokeLinecap="round" strokeLinejoin="round"/>
</svg>
