<svg width="16" height="16" viewBox="0 0 16 16" fill="none" xmlns="http://www.w3.org/2000/svg">
<path d="M6.00016 0.666748V2.00008H10.0002V0.666748H11.3335V2.00008H14.0002C14.3684 2.00008 14.6668 2.29856 14.6668 2.66675V13.3334C14.6668 13.7016 14.3684 14.0001 14.0002 14.0001H2.00016C1.63198 14.0001 1.3335 13.7016 1.3335 13.3334V2.66675C1.3335 2.29856 1.63198 2.00008 2.00016 2.00008H4.66683V0.666748H6.00016ZM13.3335 7.33341H2.66683V12.6667H13.3335V7.33341ZM4.66683 3.33341H2.66683V6.00008H13.3335V3.33341H11.3335V4.66675H10.0002V3.33341H6.00016V4.66675H4.66683V3.33341Z" fill="#727272"/>
</svg>
