<svg width="24" height="24" viewBox="0 0 24 24" fill="none" xmlns="http:
<path d="M21.0009 12.1998C21.0009 11.4599 20.9396 10.9199 20.807 10.3599H12.1846V13.6998H17.2457C17.1437 14.5299 16.5927 15.7799 15.3682 16.6198L15.3511 16.7316L18.0773 18.8014L18.2662 18.8199C20.0009 17.2498 21.0009 14.9398 21.0009 12.1998" fill="#4285F4"/>
<path d="M12.1836 21.0001C14.6631 21.0001 16.7447 20.2001 18.2652 18.8201L15.3672 16.62C14.5917 17.15 13.5509 17.52 12.1836 17.52C9.75502 17.52 7.69382 15.95 6.95906 13.78L6.85136 13.789L4.01656 15.939L3.97949 16.04C5.48967 18.98 8.59171 21.0001 12.1836 21.0001Z" fill="#34A853"/>
<path d="M6.96109 13.7801C6.76722 13.2201 6.65502 12.62 6.65502 12.0001C6.65502 11.38 6.76722 10.7801 6.95089 10.2201L6.94576 10.1008L4.07543 7.91626L3.98152 7.96004C3.3591 9.18005 3.00195 10.5501 3.00195 12.0001C3.00195 13.4501 3.3591 14.82 3.98152 16.04L6.96109 13.7801" fill="#FBBC05"/>
<path d="M12.1836 6.47998C13.9081 6.47998 15.0713 7.20997 15.7346 7.82001L18.3264 5.34C16.7347 3.89 14.6632 3 12.1836 3C8.59174 3 5.48968 5.01998 3.97949 7.95996L6.94887 10.22C7.69384 8.04999 9.75505 6.47998 12.1836 6.47998" fill="#EB4335"/>
</svg>
