<svg width="32" height="32" viewBox="0 0 32 32" fill="none" xmlns="http://www.w3.org/2000/svg">
<rect width="32" height="32" fill="#F2F2F2"/>
<path d="M24.251 10.75H7.75098C7.33676 10.75 7.00098 11.0858 7.00098 11.5V23.5C7.00098 23.9142 7.33676 24.25 7.75098 24.25H24.251C24.6652 24.25 25.001 23.9142 25.001 23.5V11.5C25.001 11.0858 24.6652 10.75 24.251 10.75Z" stroke="#727272" stroke-width="1.5" stroke-linecap="round" stroke-linejoin="round"/>
<path d="M19.75 10.75V9.25C19.75 8.85218 19.592 8.47064 19.3107 8.18934C19.0294 7.90804 18.6478 7.75 18.25 7.75H13.75C13.3522 7.75 12.9706 7.90804 12.6893 8.18934C12.408 8.47064 12.25 8.85218 12.25 9.25V10.75" stroke="#727272" stroke-width="1.5" stroke-linecap="round" stroke-linejoin="round"/>
<path d="M25.0011 15.8416C22.2658 17.4241 19.1605 18.255 16.0004 18.2501C12.8407 18.255 9.736 17.4244 7.00098 15.8423" stroke="#727272" stroke-width="1.5" stroke-linecap="round" stroke-linejoin="round"/>
<path d="M14.875 15.25H17.125" stroke="#727272" stroke-width="1.5" stroke-linecap="round" stroke-linejoin="round"/>
</svg>
